<svg width="123" height="81" viewBox="0 0 123 81" fill="none" xmlns="http://www.w3.org/2000/svg">
<path d="M37.1744 11.156C38.6304 11.156 39.7854 11.597 40.6394 12.479C41.5074 13.361 41.9414 14.586 41.9414 16.154V23H38.3714V16.637C38.3714 15.881 38.1684 15.3 37.7624 14.894C37.3704 14.474 36.8244 14.264 36.1244 14.264C35.4244 14.264 34.8714 14.474 34.4654 14.894C34.0734 15.3 33.8774 15.881 33.8774 16.637V23H30.3074V16.637C30.3074 15.881 30.1044 15.3 29.6984 14.894C29.3064 14.474 28.7604 14.264 28.0604 14.264C27.3604 14.264 26.8074 14.474 26.4014 14.894C26.0094 15.3 25.8134 15.881 25.8134 16.637V23H22.2224V11.282H25.8134V12.752C26.1774 12.262 26.6534 11.877 27.2414 11.597C27.8294 11.303 28.4944 11.156 29.2364 11.156C30.1184 11.156 30.9024 11.345 31.5884 11.723C32.2884 12.101 32.8344 12.64 33.2264 13.34C33.6324 12.696 34.1854 12.171 34.8854 11.765C35.5854 11.359 36.3484 11.156 37.1744 11.156ZM56.4229 11.282L49.0729 28.565H45.2089L47.8969 22.601L43.1299 11.282H47.1409L49.8499 18.611L52.5379 11.282H56.4229ZM66.6464 15.44C67.5004 15.622 68.1864 16.049 68.7044 16.721C69.2224 17.379 69.4814 18.135 69.4814 18.989C69.4814 20.221 69.0474 21.201 68.1794 21.929C67.3254 22.643 66.1284 23 64.5884 23H57.7214V8.258H64.3574C65.8554 8.258 67.0244 8.601 67.8644 9.287C68.7184 9.973 69.1454 10.904 69.1454 12.08C69.1454 12.948 68.9144 13.669 68.4524 14.243C68.0044 14.817 67.4024 15.216 66.6464 15.44ZM61.3124 14.222H63.6644C64.2524 14.222 64.7004 14.096 65.0084 13.844C65.3304 13.578 65.4914 13.193 65.4914 12.689C65.4914 12.185 65.3304 11.8 65.0084 11.534C64.7004 11.268 64.2524 11.135 63.6644 11.135H61.3124V14.222ZM63.9584 20.102C64.5604 20.102 65.0224 19.969 65.3444 19.703C65.6804 19.423 65.8484 19.024 65.8484 18.506C65.8484 17.988 65.6734 17.582 65.3234 17.288C64.9874 16.994 64.5184 16.847 63.9164 16.847H61.3124V20.102H63.9584ZM75.1552 7.46V23H71.5642V7.46H75.1552ZM83.0916 23.168C81.9436 23.168 80.9076 22.923 79.9836 22.433C79.0736 21.943 78.3526 21.243 77.8206 20.333C77.3026 19.423 77.0436 18.359 77.0436 17.141C77.0436 15.937 77.3096 14.88 77.8416 13.97C78.3736 13.046 79.1016 12.339 80.0256 11.849C80.9496 11.359 81.9856 11.114 83.1336 11.114C84.2816 11.114 85.3176 11.359 86.2416 11.849C87.1656 12.339 87.8936 13.046 88.4256 13.97C88.9576 14.88 89.2236 15.937 89.2236 17.141C89.2236 18.345 88.9506 19.409 88.4046 20.333C87.8726 21.243 87.1376 21.943 86.1996 22.433C85.2756 22.923 84.2396 23.168 83.0916 23.168ZM83.0916 20.06C83.7776 20.06 84.3586 19.808 84.8346 19.304C85.3246 18.8 85.5696 18.079 85.5696 17.141C85.5696 16.203 85.3316 15.482 84.8556 14.978C84.3936 14.474 83.8196 14.222 83.1336 14.222C82.4336 14.222 81.8526 14.474 81.3906 14.978C80.9286 15.468 80.6976 16.189 80.6976 17.141C80.6976 18.079 80.9216 18.8 81.3696 19.304C81.8316 19.808 82.4056 20.06 83.0916 20.06ZM95.5807 11.114C96.4067 11.114 97.1277 11.282 97.7437 11.618C98.3737 11.954 98.8567 12.395 99.1927 12.941V11.282H102.784V22.979C102.784 24.057 102.567 25.03 102.133 25.898C101.713 26.78 101.062 27.48 100.18 27.998C99.3117 28.516 98.2267 28.775 96.9247 28.775C95.1887 28.775 93.7817 28.362 92.7037 27.536C91.6257 26.724 91.0097 25.618 90.8557 24.218H94.4047C94.5167 24.666 94.7827 25.016 95.2027 25.268C95.6227 25.534 96.1407 25.667 96.7567 25.667C97.4987 25.667 98.0867 25.45 98.5207 25.016C98.9687 24.596 99.1927 23.917 99.1927 22.979V21.32C98.8427 21.866 98.3597 22.314 97.7437 22.664C97.1277 23 96.4067 23.168 95.5807 23.168C94.6147 23.168 93.7397 22.923 92.9557 22.433C92.1717 21.929 91.5487 21.222 91.0867 20.312C90.6387 19.388 90.4147 18.324 90.4147 17.12C90.4147 15.916 90.6387 14.859 91.0867 13.949C91.5487 13.039 92.1717 12.339 92.9557 11.849C93.7397 11.359 94.6147 11.114 95.5807 11.114ZM99.1927 17.141C99.1927 16.245 98.9407 15.538 98.4367 15.02C97.9467 14.502 97.3447 14.243 96.6307 14.243C95.9167 14.243 95.3077 14.502 94.8037 15.02C94.3137 15.524 94.0687 16.224 94.0687 17.12C94.0687 18.016 94.3137 18.73 94.8037 19.262C95.3077 19.78 95.9167 20.039 96.6307 20.039C97.3447 20.039 97.9467 19.78 98.4367 19.262C98.9407 18.744 99.1927 18.037 99.1927 17.141Z" fill="#004961" fill-opacity="0.06"/>
<path d="M37.1744 54.156C38.6304 54.156 39.7854 54.597 40.6394 55.479C41.5074 56.361 41.9414 57.586 41.9414 59.154V66H38.3714V59.637C38.3714 58.881 38.1684 58.3 37.7624 57.894C37.3704 57.474 36.8244 57.264 36.1244 57.264C35.4244 57.264 34.8714 57.474 34.4654 57.894C34.0734 58.3 33.8774 58.881 33.8774 59.637V66H30.3074V59.637C30.3074 58.881 30.1044 58.3 29.6984 57.894C29.3064 57.474 28.7604 57.264 28.0604 57.264C27.3604 57.264 26.8074 57.474 26.4014 57.894C26.0094 58.3 25.8134 58.881 25.8134 59.637V66H22.2224V54.282H25.8134V55.752C26.1774 55.262 26.6534 54.877 27.2414 54.597C27.8294 54.303 28.4944 54.156 29.2364 54.156C30.1184 54.156 30.9024 54.345 31.5884 54.723C32.2884 55.101 32.8344 55.64 33.2264 56.34C33.6324 55.696 34.1854 55.171 34.8854 54.765C35.5854 54.359 36.3484 54.156 37.1744 54.156ZM56.4229 54.282L49.0729 71.565H45.2089L47.8969 65.601L43.1299 54.282H47.1409L49.8499 61.611L52.5379 54.282H56.4229ZM66.6464 58.44C67.5004 58.622 68.1864 59.049 68.7044 59.721C69.2224 60.379 69.4814 61.135 69.4814 61.989C69.4814 63.221 69.0474 64.201 68.1794 64.929C67.3254 65.643 66.1284 66 64.5884 66H57.7214V51.258H64.3574C65.8554 51.258 67.0244 51.601 67.8644 52.287C68.7184 52.973 69.1454 53.904 69.1454 55.08C69.1454 55.948 68.9144 56.669 68.4524 57.243C68.0044 57.817 67.4024 58.216 66.6464 58.44ZM61.3124 57.222H63.6644C64.2524 57.222 64.7004 57.096 65.0084 56.844C65.3304 56.578 65.4914 56.193 65.4914 55.689C65.4914 55.185 65.3304 54.8 65.0084 54.534C64.7004 54.268 64.2524 54.135 63.6644 54.135H61.3124V57.222ZM63.9584 63.102C64.5604 63.102 65.0224 62.969 65.3444 62.703C65.6804 62.423 65.8484 62.024 65.8484 61.506C65.8484 60.988 65.6734 60.582 65.3234 60.288C64.9874 59.994 64.5184 59.847 63.9164 59.847H61.3124V63.102H63.9584ZM75.1552 50.46V66H71.5642V50.46H75.1552ZM83.0916 66.168C81.9436 66.168 80.9076 65.923 79.9836 65.433C79.0736 64.943 78.3526 64.243 77.8206 63.333C77.3026 62.423 77.0436 61.359 77.0436 60.141C77.0436 58.937 77.3096 57.88 77.8416 56.97C78.3736 56.046 79.1016 55.339 80.0256 54.849C80.9496 54.359 81.9856 54.114 83.1336 54.114C84.2816 54.114 85.3176 54.359 86.2416 54.849C87.1656 55.339 87.8936 56.046 88.4256 56.97C88.9576 57.88 89.2236 58.937 89.2236 60.141C89.2236 61.345 88.9506 62.409 88.4046 63.333C87.8726 64.243 87.1376 64.943 86.1996 65.433C85.2756 65.923 84.2396 66.168 83.0916 66.168ZM83.0916 63.06C83.7776 63.06 84.3586 62.808 84.8346 62.304C85.3246 61.8 85.5696 61.079 85.5696 60.141C85.5696 59.203 85.3316 58.482 84.8556 57.978C84.3936 57.474 83.8196 57.222 83.1336 57.222C82.4336 57.222 81.8526 57.474 81.3906 57.978C80.9286 58.468 80.6976 59.189 80.6976 60.141C80.6976 61.079 80.9216 61.8 81.3696 62.304C81.8316 62.808 82.4056 63.06 83.0916 63.06ZM95.5807 54.114C96.4067 54.114 97.1277 54.282 97.7437 54.618C98.3737 54.954 98.8567 55.395 99.1927 55.941V54.282H102.784V65.979C102.784 67.057 102.567 68.03 102.133 68.898C101.713 69.78 101.062 70.48 100.18 70.998C99.3117 71.516 98.2267 71.775 96.9247 71.775C95.1887 71.775 93.7817 71.362 92.7037 70.536C91.6257 69.724 91.0097 68.618 90.8557 67.218H94.4047C94.5167 67.666 94.7827 68.016 95.2027 68.268C95.6227 68.534 96.1407 68.667 96.7567 68.667C97.4987 68.667 98.0867 68.45 98.5207 68.016C98.9687 67.596 99.1927 66.917 99.1927 65.979V64.32C98.8427 64.866 98.3597 65.314 97.7437 65.664C97.1277 66 96.4067 66.168 95.5807 66.168C94.6147 66.168 93.7397 65.923 92.9557 65.433C92.1717 64.929 91.5487 64.222 91.0867 63.312C90.6387 62.388 90.4147 61.324 90.4147 60.12C90.4147 58.916 90.6387 57.859 91.0867 56.949C91.5487 56.039 92.1717 55.339 92.9557 54.849C93.7397 54.359 94.6147 54.114 95.5807 54.114ZM99.1927 60.141C99.1927 59.245 98.9407 58.538 98.4367 58.02C97.9467 57.502 97.3447 57.243 96.6307 57.243C95.9167 57.243 95.3077 57.502 94.8037 58.02C94.3137 58.524 94.0687 59.224 94.0687 60.12C94.0687 61.016 94.3137 61.73 94.8037 62.262C95.3077 62.78 95.9167 63.039 96.6307 63.039C97.3447 63.039 97.9467 62.78 98.4367 62.262C98.9407 61.744 99.1927 61.037 99.1927 60.141Z" fill="#004961" fill-opacity="0.06"/>
<path d="M57.1744 34.156C58.6304 34.156 59.7854 34.597 60.6394 35.479C61.5074 36.361 61.9414 37.586 61.9414 39.154V46H58.3714V39.637C58.3714 38.881 58.1684 38.3 57.7624 37.894C57.3704 37.474 56.8244 37.264 56.1244 37.264C55.4244 37.264 54.8714 37.474 54.4654 37.894C54.0734 38.3 53.8774 38.881 53.8774 39.637V46H50.3074V39.637C50.3074 38.881 50.1044 38.3 49.6984 37.894C49.3064 37.474 48.7604 37.264 48.0604 37.264C47.3604 37.264 46.8074 37.474 46.4014 37.894C46.0094 38.3 45.8134 38.881 45.8134 39.637V46H42.2224V34.282H45.8134V35.752C46.1774 35.262 46.6534 34.877 47.2414 34.597C47.8294 34.303 48.4944 34.156 49.2364 34.156C50.1184 34.156 50.9024 34.345 51.5884 34.723C52.2884 35.101 52.8344 35.64 53.2264 36.34C53.6324 35.696 54.1854 35.171 54.8854 34.765C55.5854 34.359 56.3484 34.156 57.1744 34.156ZM76.4229 34.282L69.0729 51.565H65.2089L67.8969 45.601L63.1299 34.282H67.1409L69.8499 41.611L72.5379 34.282H76.4229ZM86.6464 38.44C87.5004 38.622 88.1864 39.049 88.7044 39.721C89.2224 40.379 89.4814 41.135 89.4814 41.989C89.4814 43.221 89.0474 44.201 88.1794 44.929C87.3254 45.643 86.1284 46 84.5884 46H77.7214V31.258H84.3574C85.8554 31.258 87.0244 31.601 87.8644 32.287C88.7184 32.973 89.1454 33.904 89.1454 35.08C89.1454 35.948 88.9144 36.669 88.4524 37.243C88.0044 37.817 87.4024 38.216 86.6464 38.44ZM81.3124 37.222H83.6644C84.2524 37.222 84.7004 37.096 85.0084 36.844C85.3304 36.578 85.4914 36.193 85.4914 35.689C85.4914 35.185 85.3304 34.8 85.0084 34.534C84.7004 34.268 84.2524 34.135 83.6644 34.135H81.3124V37.222ZM83.9584 43.102C84.5604 43.102 85.0224 42.969 85.3444 42.703C85.6804 42.423 85.8484 42.024 85.8484 41.506C85.8484 40.988 85.6734 40.582 85.3234 40.288C84.9874 39.994 84.5184 39.847 83.9164 39.847H81.3124V43.102H83.9584ZM95.1552 30.46V46H91.5642V30.46H95.1552ZM103.092 46.168C101.944 46.168 100.908 45.923 99.9836 45.433C99.0736 44.943 98.3526 44.243 97.8206 43.333C97.3026 42.423 97.0436 41.359 97.0436 40.141C97.0436 38.937 97.3096 37.88 97.8416 36.97C98.3736 36.046 99.1016 35.339 100.026 34.849C100.95 34.359 101.986 34.114 103.134 34.114C104.282 34.114 105.318 34.359 106.242 34.849C107.166 35.339 107.894 36.046 108.426 36.97C108.958 37.88 109.224 38.937 109.224 40.141C109.224 41.345 108.951 42.409 108.405 43.333C107.873 44.243 107.138 44.943 106.2 45.433C105.276 45.923 104.24 46.168 103.092 46.168ZM103.092 43.06C103.778 43.06 104.359 42.808 104.835 42.304C105.325 41.8 105.57 41.079 105.57 40.141C105.57 39.203 105.332 38.482 104.856 37.978C104.394 37.474 103.82 37.222 103.134 37.222C102.434 37.222 101.853 37.474 101.391 37.978C100.929 38.468 100.698 39.189 100.698 40.141C100.698 41.079 100.922 41.8 101.37 42.304C101.832 42.808 102.406 43.06 103.092 43.06ZM115.581 34.114C116.407 34.114 117.128 34.282 117.744 34.618C118.374 34.954 118.857 35.395 119.193 35.941V34.282H122.784V45.979C122.784 47.057 122.567 48.03 122.133 48.898C121.713 49.78 121.062 50.48 120.18 50.998C119.312 51.516 118.227 51.775 116.925 51.775C115.189 51.775 113.782 51.362 112.704 50.536C111.626 49.724 111.01 48.618 110.856 47.218H114.405C114.517 47.666 114.783 48.016 115.203 48.268C115.623 48.534 116.141 48.667 116.757 48.667C117.499 48.667 118.087 48.45 118.521 48.016C118.969 47.596 119.193 46.917 119.193 45.979V44.32C118.843 44.866 118.36 45.314 117.744 45.664C117.128 46 116.407 46.168 115.581 46.168C114.615 46.168 113.74 45.923 112.956 45.433C112.172 44.929 111.549 44.222 111.087 43.312C110.639 42.388 110.415 41.324 110.415 40.12C110.415 38.916 110.639 37.859 111.087 36.949C111.549 36.039 112.172 35.339 112.956 34.849C113.74 34.359 114.615 34.114 115.581 34.114ZM119.193 40.141C119.193 39.245 118.941 38.538 118.437 38.02C117.947 37.502 117.345 37.243 116.631 37.243C115.917 37.243 115.308 37.502 114.804 38.02C114.314 38.524 114.069 39.224 114.069 40.12C114.069 41.016 114.314 41.73 114.804 42.262C115.308 42.78 115.917 43.039 116.631 43.039C117.345 43.039 117.947 42.78 118.437 42.262C118.941 41.744 119.193 41.037 119.193 40.141Z" fill="white"/>
<path d="M82 30V0" stroke="#008BEF" stroke-width="2"/>
<line x1="82" y1="1" x2="2" y2="1" stroke="#008BEF" stroke-width="2"/>
<line x1="82" y1="80" x2="2" y2="80" stroke="#008BEF" stroke-width="2"/>
<line x1="1" y1="81" x2="1" y2="-6.72742e-10" stroke="#008BEF" stroke-width="2"/>
<path d="M82 81V51" stroke="#008BEF" stroke-width="2"/>
</svg>
